# xmcd
#
# Track frame offsets: 
#        150
#        13936
#        24901
#        40255
#        54668
#        69551
#        84748
#        98221
#        113104
#        126577
#        142244
#        156500
#        169816
#        181251
#        193313
#        207726
#        219475
#        233575
#        247675
#        260051
#        273524
#        283392
#        294514
#        307203
#        319422
#        329603
#
# Disc length: 4584 seconds
#
# Revision: 0
# Processed by: cddbd v1.5.1PL0 Copyright (c) Steve Scherf et al.
# Submitted via: ExactAudioCopy v0.95a5
#
DISCID=aa11e61a
DTITLE=The Orioles - 1947-1955 (Disk 1)
DYEAR=2004
DGENRE=R&B
TTITLE0=It's Too Soon To Know
TTITLE1=Barbra Lee
TTITLE2=(It's Gonna Be A) Lonely Christmas
TTITLE3=Tell Me So
TTITLE4=Deacon Jones
TTITLE5=A Kiss And A Rose
TTITLE6=I Challenge Your Kiss
TTITLE7=Forgive And Forget
TTITLE8=What Are You Doing New Years Eve
TTITLE9=I Cover The Waterfront
TTITLE10=Every Dog-Gone Time
TTITLE11=If It's To Be
TTITLE12=I'd Rather Have You Under The Moon
TTITLE13=I Need You So
TTITLE14=Goodnight Irene
TTITLE15=I Cross My Fingers
TTITLE16=Walking By The river
TTITLE17=I Miss You So
TTITLE18=Happy Go Lucky Local Blues
TTITLE19=Would I Love You (Love You, Love You)
TTITLE20=Hold Me! Squeeze Me!
TTITLE21=Baby Please Don't Go
TTITLE22=For All We Know
TTITLE23=How Blind Can You Be
TTITLE24=I May Be Wrong
TTITLE25=Blame It On Yourself
EXTD=
EXTT0=
EXTT1=
EXTT2=
EXTT3=
EXTT4=
EXTT5=
EXTT6=
EXTT7=
EXTT8=
EXTT9=
EXTT10=
EXTT11=
EXTT12=
EXTT13=
EXTT14=
EXTT15=
EXTT16=
EXTT17=
EXTT18=
EXTT19=
EXTT20=
EXTT21=
EXTT22=
EXTT23=
EXTT24=
EXTT25=
PLAYORDER=
